HIERARCHY
ROOT Hips
{
	OFFSET -3.958830 18.904000 13.208200
	CHANNELS 6 Xposition Yposition Zposition Zrotation Yrotation Xrotation 
	JOINT LHipJoint
	{
		OFFSET 0.000000 0.000000 0.000000
		CHANNELS 3 Zrotation Yrotation Xrotation
		JOINT LeftUpLeg
		{
			OFFSET 1.800000 -1.400000 0.085000
			CHANNELS 3 Zrotation Yrotation Xrotation
			JOINT LeftLeg
			{
				OFFSET 2.215000 -6.000000 0.000000
				CHANNELS 3 Zrotation Yrotation Xrotation
				JOINT LeftFoot
				{
					OFFSET 2.500000 -6.900000 0.000000
					CHANNELS 3 Zrotation Yrotation Xrotation
					JOINT LeftToeBase
					{
						OFFSET 0.200000 -0.500000 1.950000
						CHANNELS 3 Zrotation Yrotation Xrotation
						End Site
						{
							OFFSET 0.000000 0.000000 0.000000
						}
					}
				}
			}
		}
	}
	JOINT RHipJoint
	{
		OFFSET 0.000000 0.000000 0.000000
		CHANNELS 3 Zrotation Yrotation Xrotation
		JOINT RightUpLeg
		{
			OFFSET -1.800000 -1.400000 0.085000
			CHANNELS 3 Zrotation Yrotation Xrotation
			JOINT RightLeg
			{
				OFFSET -2.215000 -6.000000 0.000000
				CHANNELS 3 Zrotation Yrotation Xrotation
				JOINT RightFoot
				{
					OFFSET -2.500000 -6.900000 0.000000
					CHANNELS 3 Zrotation Yrotation Xrotation
					JOINT RightToeBase
					{
						OFFSET -0.200000 -0.500000 1.950000
						CHANNELS 3 Zrotation Yrotation Xrotation
						End Site
						{
							OFFSET 0.000000 0.000000 0.000000
						}
					}
				}
			}
		}
	}
	JOINT LowerBack
	{
		OFFSET 0.000000 0.000000 0.000000
		CHANNELS 3 Zrotation Yrotation Xrotation
		JOINT Spine
		{
			OFFSET -0.087000 1.940000 -0.288900
			CHANNELS 3 Zrotation Yrotation Xrotation
			JOINT Spine1
			{
				OFFSET 0.000000 1.950000 0.060000
				CHANNELS 3 Zrotation Yrotation Xrotation
				JOINT Neck
				{
					OFFSET 0.000000 0.000000 0.000000
					CHANNELS 3 Zrotation Yrotation Xrotation
					JOINT Neck1
					{
						OFFSET 0.000000 1.600000 0.340000
						CHANNELS 3 Zrotation Yrotation Xrotation
						JOINT Head
						{
							OFFSET 0.000000 1.667000 -0.240000
							CHANNELS 3 Zrotation Yrotation Xrotation
							End Site
							{
								OFFSET 0.000000 0.000000 0.000000
							}
						}
					}
				}
				JOINT LeftShoulder
				{
					OFFSET 0.000000 0.000000 0.000000
					CHANNELS 3 Zrotation Yrotation Xrotation
					JOINT LeftArm
					{
						OFFSET 2.700000 1.550000 -0.730000
						CHANNELS 3 Zrotation Yrotation Xrotation
						JOINT LeftForeArm
						{
							OFFSET 5.450000 0.000000 0.000000
							CHANNELS 3 Zrotation Yrotation Xrotation
							JOINT LeftHand
							{
								OFFSET 3.450000 0.000000 0.000000
								CHANNELS 3 Zrotation Yrotation Xrotation
								JOINT LeftHandIndex1
								{
									OFFSET 0.750000 0.000000 0.000000
									CHANNELS 3 Zrotation Yrotation Xrotation
									End Site
									{
										OFFSET 0.000000 0.000000 0.000000
									}
								}
							}
						}
					}
				}
				JOINT RightShoulder
				{
					OFFSET 0.000000 0.000000 0.000000
					CHANNELS 3 Zrotation Yrotation Xrotation
					JOINT RightArm
					{
						OFFSET -2.700000 1.550000 -0.730000
						CHANNELS 3 Zrotation Yrotation Xrotation
						JOINT RightForeArm
						{
							OFFSET -5.450000 0.000000 0.000000
							CHANNELS 3 Zrotation Yrotation Xrotation
							JOINT RightHand
							{
								OFFSET -3.450000 0.000000 0.000000
								CHANNELS 3 Zrotation Yrotation Xrotation
								JOINT RightHandIndex1
								{
									OFFSET -0.750000 0.000000 0.000000
									CHANNELS 3 Zrotation Yrotation Xrotation
									End Site
									{
										OFFSET 0.000000 0.000000 0.000000
									}
								}
							}
						}
					}
				}
			}
		}
	}
}
MOTION
Frames: 13
Frame Time: 0.016667
0.198090 16.402960 -3.545890 -5.840021 -5.296612 6.286235 -15.177841 12.111348 4.977108 -13.912183 -11.875453 -23.834856 -4.412149 11.318849 58.260192 0.951097 10.335568 0.999102 0.574040 0.245380 0.611570 18.526564 -9.490407 3.058213 -5.467056 3.823755 -40.333543 -3.661036 -6.304598 40.583787 -0.605485 -4.930220 2.459665 0.091020 -0.141980 0.280400 -3.946792 -2.792797 -8.631316 25.107361 -11.397726 32.885728 -7.181654 -4.483161 3.552175 4.759808 -7.980867 -13.432184 -21.127753 6.438680 41.878327 -11.036680 2.560870 -19.975320 -24.590481 -24.922231 6.912909 -49.014715 -27.462952 3.158123 -94.529526 -60.902022 52.643249 -3.569100 3.265409 0.757830 -0.165920 0.325510 0.120780 15.033142 30.037896 8.064137 41.618273 20.470621 -7.059822 89.289826 49.373679 33.434535 2.476423 -1.787156 -0.084830 0.119480 -0.160510 -0.245180 
0.152380 16.212290 -3.540120 -7.512821 -5.878967 6.287286 -15.137576 12.259821 4.623778 -13.452797 -10.079112 -21.445999 -5.512744 10.891635 52.950170 0.748046 9.385232 1.273882 0.640790 0.328200 0.651370 18.553976 -9.393315 3.372342 -4.705644 4.957308 -41.745684 -2.892955 -7.045570 44.234920 -0.768659 -5.547149 2.242672 0.122760 -0.195750 0.284960 -4.029206 -2.883297 -8.535271 27.510015 -12.400213 32.228122 -7.993599 -5.018762 4.073981 5.364329 -8.858922 -14.628550 -23.477606 8.704827 41.710611 -11.481870 3.315280 -21.808780 -26.533819 -27.106292 8.396413 -49.328812 -28.098894 1.065366 -71.072238 -64.103234 37.437799 -3.300305 3.371929 0.780210 -0.210450 0.376730 0.135310 15.883174 33.291589 7.928463 41.571067 24.270072 -6.025060 78.923295 48.894116 28.061069 2.446539 -1.738993 -0.048990 0.115430 -0.196370 -0.240720 
0.116830 16.019550 -3.542150 -8.237295 -5.608573 6.704139 -15.134371 12.128658 4.339888 -14.262531 -8.872598 -19.733037 -5.467299 10.629300 50.599882 0.568795 8.988533 1.368616 0.686940 0.367300 0.720980 18.617085 -9.036492 3.863460 -6.999554 6.416715 -45.081267 0.346969 -9.632161 50.478556 -1.039584 -6.933947 1.752371 0.176960 -0.229670 0.280690 -4.133594 -2.925154 -8.634353 29.151983 -12.425249 29.954385 -7.420168 -5.564980 6.023864 5.324215 -9.141583 -15.998190 -25.087576 10.571810 43.127548 -12.801540 4.324490 -22.659770 -25.465812 -30.465901 9.968621 -48.933286 -35.038590 1.186768 -44.921532 -62.977409 20.467190 -3.017425 3.408583 0.821540 -0.215340 0.395490 0.105870 15.066558 36.798652 7.292395 41.321641 30.422297 -3.892721 61.323117 48.067692 20.530760 2.316779 -1.609865 -0.073470 0.143840 -0.187640 -0.287760 
0.086240 15.872530 -3.561560 -8.495443 -7.484935 6.227027 -15.163718 12.010484 4.166807 -15.020794 -7.943311 -18.774122 -5.500015 11.070109 50.201368 0.542591 8.991011 1.346855 0.747880 0.457390 0.772610 18.634507 -8.648729 4.371901 -10.273774 8.199261 -47.395401 4.654239 -12.377287 54.858091 -1.334606 -8.121083 1.364428 0.228430 -0.255900 0.293790 -4.119473 -3.042288 -8.875610 28.738280 -11.643033 31.070782 -5.615627 -5.406353 7.652190 4.429535 -9.336259 -18.648211 -27.794640 12.597394 45.358027 -13.253870 5.004530 -24.484440 -21.929640 -36.309832 10.573604 -40.136693 -46.442797 2.164631 -21.266968 -55.038405 7.229445 -2.854721 3.193022 0.855110 -0.230740 0.458590 0.108570 13.867425 42.005409 7.769813 38.153863 35.596277 -3.418405 38.682847 46.510847 12.227153 2.094369 -1.426536 -0.057440 0.190620 -0.197420 -0.290450 
0.077070 15.773830 -3.593510 -8.283080 -6.791984 5.227458 -15.158322 11.966889 4.135465 -16.833669 -7.138216 -19.100953 -2.170500 10.635893 53.619060 0.587798 9.361258 1.193220 0.756190 0.469010 0.789080 18.660314 -8.345508 4.803046 -15.237109 9.943163 -47.691459 11.223455 -15.782220 55.960297 -1.565152 -9.061418 1.065364 0.234210 -0.297270 0.301830 -4.146250 -3.134020 -9.283597 28.675843 -11.851065 33.391566 -3.620219 -6.873648 8.212927 3.481133 -9.571279 -22.212489 -29.187538 14.118864 47.867630 -14.439850 6.406590 -26.099440 -15.973698 -42.884718 10.275407 -28.531840 -57.090936 3.492188 4.764933 -43.740026 -2.054191 -3.167543 2.467842 0.900710 -0.248210 0.488910 0.081340 10.340463 46.281474 9.018529 33.120016 40.397286 -5.472742 12.237751 44.183811 3.651354 1.783778 -1.341097 -0.058980 0.183570 -0.176210 -0.319680 
0.083110 15.680050 -3.638870 -7.426367 -5.142423 4.849125 -15.207723 11.422331 4.446339 -19.696052 -8.674954 -21.774852 2.116349 9.350529 60.238936 0.718346 10.203510 0.891114 0.741690 0.440790 0.831470 18.651768 -8.309479 4.984675 -18.562393 9.914969 -48.560183 14.095018 -17.731910 56.719406 -1.695443 -9.656488 0.861042 0.232150 -0.315730 0.326650 -4.064112 -2.322046 -9.851476 28.773194 -9.399218 33.969127 0.953914 -4.675106 17.195780 2.822931 -10.084972 -31.122934 -25.627708 14.295861 48.855214 -16.383750 9.263870 -27.734020 -2.147976 -30.591442 40.606581 82.997491 -52.614090 -159.757052 -23.362158 -22.352938 -2.494374 -3.673884 5.687104 0.938190 -0.231270 0.504140 0.032710 -0.291524 38.977714 -0.679883 23.602107 47.581789 -6.501871 -9.635814 35.686947 -2.361921 1.766232 -1.135019 -0.083170 0.171900 -0.142830 -0.369140 
0.098990 15.613180 -3.697320 -7.212219 -6.021809 5.593540 -15.354199 10.969837 4.948574 -19.280640 -12.746923 -27.182095 0.264388 11.684896 67.555089 1.060166 11.776208 0.392928 0.711810 0.416780 0.863060 18.630688 -7.800602 4.868226 -17.483959 9.395538 -51.245420 11.041775 -17.515646 60.009099 -1.754763 -9.974305 0.762436 0.218770 -0.333550 0.333710 -3.888023 -2.652388 -9.892319 26.592639 -8.724741 34.391062 3.078845 -4.387510 16.447913 1.103674 -9.354139 -29.869637 -22.632861 15.425124 48.968872 -18.367570 12.699690 -28.771700 4.049781 -35.477821 35.127666 78.146492 -48.011806 -165.334334 -16.414234 -13.799862 -1.749158 -1.263485 5.589141 0.947800 -0.207780 0.517570 -0.005440 -3.901065 39.418413 -1.099894 19.589430 49.252828 -5.732942 -19.646996 27.389697 -4.888857 2.054547 -1.018364 -0.100730 0.151960 -0.131010 -0.407250 
0.103030 15.592900 -3.756540 -7.250383 -8.911727 6.328281 -15.448823 10.462013 5.433784 -15.562129 -16.583418 -33.723220 -5.578092 17.181445 72.517882 1.501613 13.637326 -0.121829 0.679610 0.389880 0.859920 18.616328 -7.542652 4.745065 -14.340432 9.728393 -53.575802 5.952625 -15.059813 62.006884 -1.674593 -9.719857 0.838965 0.208810 -0.295960 0.340950 -3.808750 -2.561391 -10.021505 24.898991 -7.387289 36.301006 4.052656 -2.720098 14.942871 0.293145 -9.763148 -28.131388 -22.530305 16.511784 46.849525 -19.056450 14.482130 -28.386360 8.006000 -36.787335 31.560472 75.842869 -44.028332 -172.095975 -10.145242 -10.108144 -1.487748 -0.183938 4.650216 0.908780 -0.163760 0.494050 -0.012620 -6.196035 39.611542 -3.306695 15.061464 47.420424 -6.042604 -21.643816 23.956040 -5.144027 2.223638 -1.037319 -0.111630 0.149390 -0.121980 -0.406020 
0.128740 15.602270 -3.807440 -7.564818 -12.200972 6.958055 -15.560539 9.906299 5.860917 -8.390892 -19.319014 -40.627906 -14.924154 24.909380 73.748443 2.061384 15.536783 -0.598669 0.656220 0.386530 0.810670 18.540612 -7.497956 4.640281 -10.700020 10.280989 -54.908997 1.358248 -12.194680 61.936889 -1.554585 -9.158373 1.008270 0.182900 -0.290670 0.331960 -3.643628 -2.163753 -10.334288 23.532580 -6.652032 39.506354 2.975948 -0.991596 11.523575 1.505097 -11.246623 -27.928699 -25.483145 18.172214 45.642433 -18.445550 15.638710 -27.315930 9.281324 -35.985512 29.655244 71.451427 -41.609378 -173.660449 -6.904206 -10.968605 -1.659444 -1.151844 3.662523 0.860240 -0.169710 0.479270 0.003130 -8.595210 38.774359 -5.370963 11.338675 45.456666 -5.036764 -20.786187 20.900931 -4.344693 2.321366 -1.211912 -0.082150 0.108780 -0.135680 -0.370160 
0.150760 15.615210 -3.836380 -7.695551 -17.228095 8.128219 -15.838721 10.074068 6.190225 0.735515 -19.545597 -48.728450 -26.650547 33.770177 71.291440 2.584156 17.214573 -0.944558 0.577780 0.285020 0.736800 18.379916 -6.404185 4.535812 -8.113374 11.828501 -56.178516 -2.237435 -9.768274 61.994973 -1.490758 -8.761704 1.143460 0.098190 -0.251870 0.337660 -3.208495 -4.511568 -10.023606 15.302986 -9.473362 42.485837 3.800250 -5.602441 -2.143084 -0.613919 -10.198267 -16.656755 -32.912126 23.191186 36.679699 -18.360070 17.389940 -26.731120 6.222925 -49.206856 -13.616425 -3.630248 -38.653410 -4.727917 8.489206 -12.422509 -1.627517 -3.562463 3.244850 0.861860 -0.177500 0.458820 0.005020 -4.605776 55.711312 2.437903 8.816414 42.480607 -3.114306 -18.491712 18.103478 -3.249897 2.475821 -1.015671 -0.083720 0.090260 -0.098520 -0.346090 
0.160840 15.637350 -3.870770 -7.223021 -20.914118 8.858618 -16.023350 9.680494 6.638954 9.410804 -17.419901 -55.104177 -38.124281 41.560535 66.751407 2.939389 17.868401 -1.058672 0.600700 0.336640 0.721840 18.271886 -5.906600 4.579240 -6.596934 13.031447 -57.578520 -5.318465 -7.622220 61.702869 -1.451738 -8.487203 1.227970 0.094280 -0.276570 0.370580 -2.982012 -4.780418 -10.273165 11.306565 -6.549103 43.161695 4.929027 -3.376527 -2.011276 -0.165879 -10.935497 -16.176438 -33.092554 24.672344 34.499549 -18.214490 19.131640 -25.837710 7.609229 -44.745691 -9.425688 4.664749 -35.277829 -6.186426 9.344918 -10.796377 -1.443170 -3.552162 3.217237 0.798020 -0.174980 0.467920 0.019790 -6.277915 52.545510 -0.431914 3.263911 41.314007 -3.266978 -16.694574 15.659285 -2.514896 2.597223 -1.077273 -0.011020 0.002700 -0.132740 -0.311140 
0.185530 15.666040 -3.883760 -6.730479 -22.547934 10.109011 -16.286969 9.365873 7.213373 17.300519 -14.115472 -60.766943 -48.693832 48.169438 61.979249 3.096017 17.791846 -0.955959 0.482470 0.159180 0.653330 18.127921 -5.341500 4.516321 -6.015183 13.478767 -58.546898 -7.112377 -6.496067 60.171039 -1.354182 -8.063418 1.389520 -0.031220 -0.257000 0.333760 -2.562312 -5.370489 -10.550068 7.569072 -4.611752 43.485861 6.262638 -1.877819 -3.493593 1.903639 -11.449847 -17.050444 -34.892764 26.690373 34.031283 -18.775800 20.814020 -25.193020 7.370845 -38.323226 -3.941364 10.260766 -31.798876 -6.204937 9.115146 -11.688751 -1.121912 -3.548226 3.028151 0.856180 -0.219770 0.443310 -0.001630 -9.159652 47.901120 -0.421738 -2.772135 39.077685 -4.022983 -14.785402 16.205841 -1.504582 2.600112 -0.950760 -0.057190 0.004510 -0.079650 -0.319800 
0.194990 15.708920 -3.894600 -5.636321 -23.682733 9.639243 -16.465954 9.121812 7.701566 23.568086 -10.120347 -63.447201 -55.069968 53.794700 59.734570 3.082339 17.462398 -0.835182 0.367760 0.011110 0.554940 18.054957 -5.026629 4.328976 -6.165789 13.434183 -58.090182 -8.409295 -5.828576 59.230941 -1.272980 -7.820061 1.493020 -0.108300 -0.190100 0.281790 -2.343053 -5.628794 -10.709074 4.257821 -2.996419 44.068032 7.268692 -0.844413 -3.458268 2.537182 -11.356236 -18.207644 -36.811697 27.983152 33.437778 -16.342000 20.827700 -24.134660 8.235401 -33.461397 -1.389182 14.640499 -27.574256 -5.965618 7.599929 -10.829890 -0.788385 -3.550684 2.828140 0.910520 -0.239940 0.392380 -0.029320 -10.641354 43.545161 2.141452 -8.572436 33.754864 -6.302077 -14.119706 19.712131 -0.824262 2.462296 -0.842197 -0.130780 0.063850 0.007710 -0.320330 
